<svg width="41" height="83" viewBox="0 0 41 83" fill="none" xmlns="http://www.w3.org/2000/svg">
<path d="M13.4688 75.5439C12.2236 75.6416 10.9541 75.9712 9.66016 76.5327C8.36621 77.1187 7.27979 77.8633 6.40088 78.7666C5.81494 79.3525 5.83936 79.9141 6.47412 80.4512C7.45068 81.2568 8.63477 81.855 10.0264 82.2456C11.3936 82.6362 12.7119 82.7461 13.9814 82.5752C15.2021 82.4775 16.4595 82.1235 17.7534 81.5132C19.0474 80.9272 20.1338 80.1948 21.0127 79.3159C21.7207 78.6323 21.6597 78.0098 20.8296 77.4482C19.8042 76.7891 18.6201 76.2764 17.2773 75.9102C15.9346 75.5684 14.665 75.4463 13.4688 75.5439ZM5.70508 62.7266C5.14355 61.9453 4.5332 61.9087 3.87402 62.6167C2.99512 63.52 2.2749 64.6187 1.71338 65.9126C1.12744 67.2065 0.797852 68.4639 0.724609 69.6846C0.578125 70.9785 0.736816 72.3091 1.20068 73.6763C1.64014 75.0679 2.28711 76.2275 3.1416 77.1553C3.67871 77.7656 4.22803 77.7656 4.78955 77.1553C5.61963 76.3252 6.31543 75.251 6.87695 73.9326C7.41406 72.6387 7.73145 71.3569 7.8291 70.0874C7.87793 68.8667 7.70703 67.585 7.31641 66.2422C6.92578 64.8994 6.38867 63.7275 5.70508 62.7266ZM23.9058 65.4365C22.7339 65.8271 21.5986 66.4741 20.5 67.3774C19.4014 68.2563 18.5469 69.2451 17.9365 70.3438C17.5215 71.0518 17.6924 71.5767 18.4492 71.9185C19.6211 72.48 20.9272 72.7729 22.3677 72.7974C23.7837 72.8462 25.0776 72.6265 26.2495 72.1382C27.4214 71.7231 28.5566 71.0518 29.6553 70.124C30.7295 69.2207 31.584 68.2197 32.2188 67.1211C32.707 66.291 32.4995 65.7173 31.5962 65.3999C30.4243 65.0093 29.1426 64.814 27.751 64.814C26.335 64.814 25.0532 65.0215 23.9058 65.4365ZM13.1758 55.0361C12.4189 54.377 11.8208 54.4868 11.3813 55.3657C10.7954 56.4644 10.3926 57.7217 10.1729 59.1377C9.92871 60.5293 9.92871 61.8232 10.1729 63.0195C10.3682 64.3135 10.8564 65.5586 11.6377 66.7549C12.4189 67.9512 13.3223 68.9033 14.3477 69.6113C15.0801 70.0996 15.6294 69.9653 15.9956 69.2085C16.5815 68.1343 16.9722 66.9014 17.1675 65.5098C17.3628 64.0938 17.3384 62.7754 17.0942 61.5547C16.8257 60.3828 16.3374 59.1987 15.6294 58.0024C14.9214 56.7817 14.1035 55.793 13.1758 55.0361ZM40.312 50.9712C40.4097 50.019 39.9824 49.5796 39.0303 49.6528C37.834 49.7505 36.5889 50.0923 35.2949 50.6782C34.001 51.2397 32.9268 51.9478 32.0723 52.8022C31.1689 53.6079 30.3999 54.6333 29.7651 55.8784C29.1304 57.1235 28.7397 58.3809 28.5933 59.6504C28.4956 60.5049 28.8618 60.9321 29.6919 60.9321C30.9858 60.9565 32.3042 60.7002 33.647 60.1631C34.9653 59.626 36.0518 58.8936 36.9062 57.9658C37.8096 57.1113 38.5786 56.0371 39.2134 54.7432C39.8237 53.4492 40.1899 52.1919 40.312 50.9712ZM18.0098 47.6021C17.0576 47.3091 16.5571 47.6509 16.5083 48.6274C16.3862 49.8726 16.5083 51.1787 16.8745 52.5459C17.2407 53.9131 17.7778 55.1094 18.4858 56.1348C19.145 57.209 20.0728 58.1489 21.269 58.9546C22.4653 59.7358 23.6982 60.2485 24.9678 60.4927C25.8223 60.6147 26.2739 60.2607 26.3228 59.4307C26.4204 58.1855 26.2861 56.8794 25.9199 55.5122C25.5537 54.145 25.0044 52.9731 24.272 51.9966C23.564 51.02 22.6362 50.1289 21.4888 49.3232C20.3169 48.4932 19.1572 47.9194 18.0098 47.6021ZM24.8579 39.0327C23.9546 38.2515 22.8438 37.6289 21.5254 37.165C20.1826 36.6768 18.8887 36.4082 17.6436 36.3594C16.7158 36.3594 16.313 36.8232 16.4351 37.751C16.6548 38.9717 17.1309 40.2046 17.8633 41.4497C18.5713 42.6948 19.3892 43.7202 20.3169 44.5259C21.269 45.3804 22.4287 46.0396 23.7959 46.5034C25.1631 46.9673 26.4814 47.1504 27.751 47.0527C28.5566 46.9795 28.8984 46.54 28.7764 45.7344C28.5811 44.5137 28.1294 43.293 27.4214 42.0723C26.689 40.8516 25.8345 39.8384 24.8579 39.0327ZM40.1655 33.9424C40.019 32.9414 39.4819 32.624 38.5542 32.9902C37.4067 33.4053 36.2837 34.0522 35.1851 34.9312C34.0864 35.8101 33.2197 36.7622 32.585 37.7876C31.9258 38.8618 31.4497 40.0947 31.1567 41.4863C30.8638 42.8535 30.8027 44.1353 30.9736 45.3315C31.0957 46.1616 31.5596 46.479 32.3652 46.2837C33.6104 46.0151 34.8066 45.4414 35.9541 44.5625C37.1016 43.6836 37.9805 42.6948 38.5908 41.5962C39.25 40.4976 39.7261 39.2524 40.019 37.8608C40.2876 36.4692 40.3364 35.1631 40.1655 33.9424ZM22.6973 26.3984C21.5498 25.9834 20.2803 25.7759 18.8887 25.7759C17.4971 25.7759 16.2153 25.9712 15.0435 26.3618C14.1401 26.6792 13.9204 27.2285 14.3843 28.0098C14.9702 29.1084 15.8125 30.1216 16.9111 31.0493C18.0098 31.9771 19.1572 32.6729 20.3535 33.1367C21.5498 33.6006 22.8682 33.8203 24.3086 33.7959C25.749 33.7715 27.043 33.4785 28.1904 32.917C28.9473 32.5508 29.106 32.0137 28.6665 31.3057C28.0562 30.207 27.2017 29.2183 26.103 28.3394C25.0044 27.4604 23.8691 26.8135 22.6973 26.3984ZM35.2949 16.4009C34.8311 15.5464 34.2329 15.4121 33.5005 15.998C32.5728 16.7793 31.7427 17.7681 31.0103 18.9644C30.2778 20.1606 29.7773 21.3691 29.5088 22.5898C29.2402 23.7861 29.2036 25.0923 29.3989 26.5083C29.5942 27.8999 29.9971 29.1328 30.6074 30.207C30.998 30.9395 31.5352 31.0737 32.2188 30.6099C33.293 29.9263 34.2207 28.9863 35.002 27.79C35.7588 26.5693 36.2593 25.3242 36.5034 24.0547C36.7231 22.8584 36.7231 21.5645 36.5034 20.1729C36.2837 18.7568 35.8809 17.4995 35.2949 16.4009ZM15.8125 15.5586C14.5918 15.3389 13.2979 15.3267 11.9307 15.522C10.5391 15.7173 9.29395 16.0835 8.19531 16.6206C7.34082 17.0356 7.21875 17.6338 7.8291 18.415C8.58594 19.3672 9.57471 20.2217 10.7954 20.9785C11.9917 21.7109 13.2002 22.2114 14.4209 22.48C15.6416 22.8218 16.96 22.8828 18.376 22.6631C19.792 22.4434 21.0371 21.9795 22.1113 21.2715C22.7949 20.8076 22.8926 20.2583 22.4043 19.6235C21.6475 18.647 20.6709 17.7803 19.4746 17.0234C18.2539 16.2666 17.0332 15.7783 15.8125 15.5586ZM26.8721 3.83984C26.3105 3.08301 25.7002 3.05859 25.041 3.7666C24.2109 4.66992 23.5273 5.76855 22.9902 7.0625C22.4287 8.35645 22.1113 9.61377 22.0381 10.8345C21.916 12.0552 22.0625 13.3491 22.4775 14.7163C22.8682 16.0591 23.4297 17.231 24.1621 18.2319C24.6504 18.9155 25.2241 18.9766 25.8833 18.415C26.8354 17.5605 27.6167 16.4863 28.2271 15.1924C28.813 13.874 29.1182 12.5923 29.1426 11.3472C29.2158 10.1265 29.0449 8.83252 28.6299 7.46533C28.1904 6.07373 27.6045 4.86523 26.8721 3.83984ZM7.06006 0.214355C6.10791 0.0922852 5.65625 0.519531 5.70508 1.49609C5.85156 2.74121 6.21777 4.01074 6.80371 5.30469C7.38965 6.59863 8.10986 7.68506 8.96436 8.56396C9.84326 9.51611 10.9297 10.2852 12.2236 10.8711C13.5176 11.457 14.7993 11.7622 16.0688 11.7866C16.8989 11.7866 17.2773 11.3716 17.2041 10.5415C17.1309 9.34521 16.8013 8.1001 16.2153 6.80615C15.6294 5.51221 14.897 4.43799 14.0181 3.5835C13.1392 2.729 12.0649 1.99658 10.7954 1.38623C9.52588 0.751465 8.28076 0.36084 7.06006 0.214355Z" fill="#1F2128" fill-opacity="0.75"/>
</svg>
