<svg width="41" height="83" viewBox="0 0 41 83" fill="none" xmlns="http://www.w3.org/2000/svg">
<path d="M27.5312 75.5439C28.7764 75.6416 30.0459 75.9712 31.3398 76.5327C32.6338 77.1187 33.7202 77.8633 34.5991 78.7666C35.1851 79.3525 35.1606 79.9141 34.5259 80.4512C33.5493 81.2568 32.3652 81.855 30.9736 82.2456C29.6064 82.6362 28.2881 82.7461 27.0186 82.5752C25.7979 82.4775 24.5405 82.1235 23.2466 81.5132C21.9526 80.9272 20.8662 80.1948 19.9873 79.3159C19.2793 78.6323 19.3403 78.0098 20.1704 77.4482C21.1958 76.7891 22.3799 76.2764 23.7227 75.9102C25.0654 75.5684 26.335 75.4463 27.5312 75.5439ZM35.2949 62.7266C35.8564 61.9453 36.4668 61.9087 37.126 62.6167C38.0049 63.52 38.7251 64.6187 39.2866 65.9126C39.8726 67.2065 40.2021 68.4639 40.2754 69.6846C40.4219 70.9785 40.2632 72.3091 39.7993 73.6763C39.3599 75.0679 38.7129 76.2275 37.8584 77.1553C37.3213 77.7656 36.772 77.7656 36.2104 77.1553C35.3804 76.3252 34.6846 75.251 34.123 73.9326C33.5859 72.6387 33.2686 71.3569 33.1709 70.0874C33.1221 68.8667 33.293 67.585 33.6836 66.2422C34.0742 64.8994 34.6113 63.7275 35.2949 62.7266ZM17.0942 65.4365C18.2661 65.8271 19.4014 66.4741 20.5 67.3774C21.5986 68.2563 22.4531 69.2451 23.0635 70.3438C23.4785 71.0518 23.3076 71.5767 22.5508 71.9185C21.3789 72.48 20.0728 72.7729 18.6323 72.7974C17.2163 72.8462 15.9224 72.6265 14.7505 72.1382C13.5786 71.7231 12.4434 71.0518 11.3447 70.124C10.2705 69.2207 9.41602 68.2197 8.78125 67.1211C8.29297 66.291 8.50049 65.7173 9.40381 65.3999C10.5757 65.0093 11.8574 64.814 13.249 64.814C14.665 64.814 15.9468 65.0215 17.0942 65.4365ZM27.8242 55.0361C28.5811 54.377 29.1792 54.4868 29.6187 55.3657C30.2046 56.4644 30.6074 57.7217 30.8271 59.1377C31.0713 60.5293 31.0713 61.8232 30.8271 63.0195C30.6318 64.3135 30.1436 65.5586 29.3623 66.7549C28.5811 67.9512 27.6777 68.9033 26.6523 69.6113C25.9199 70.0996 25.3706 69.9653 25.0044 69.2085C24.4185 68.1343 24.0278 66.9014 23.8325 65.5098C23.6372 64.0938 23.6616 62.7754 23.9058 61.5547C24.1743 60.3828 24.6626 59.1987 25.3706 58.0024C26.0786 56.7817 26.8965 55.793 27.8242 55.0361ZM0.687988 50.9712C0.590332 50.019 1.01758 49.5796 1.96973 49.6528C3.16602 49.7505 4.41113 50.0923 5.70508 50.6782C6.99902 51.2397 8.07324 51.9478 8.92773 52.8022C9.83105 53.6079 10.6001 54.6333 11.2349 55.8784C11.8696 57.1235 12.2603 58.3809 12.4067 59.6504C12.5044 60.5049 12.1382 60.9321 11.3081 60.9321C10.0142 60.9565 8.6958 60.7002 7.35303 60.1631C6.03467 59.626 4.94824 58.8936 4.09375 57.9658C3.19043 57.1113 2.42139 56.0371 1.78662 54.7432C1.17627 53.4492 0.810059 52.1919 0.687988 50.9712ZM22.9902 47.6021C23.9424 47.3091 24.4429 47.6509 24.4917 48.6274C24.6138 49.8726 24.4917 51.1787 24.1255 52.5459C23.7593 53.9131 23.2222 55.1094 22.5142 56.1348C21.855 57.209 20.9272 58.1489 19.731 58.9546C18.5347 59.7358 17.3018 60.2485 16.0322 60.4927C15.1777 60.6147 14.7261 60.2607 14.6772 59.4307C14.5796 58.1855 14.7139 56.8794 15.0801 55.5122C15.4463 54.145 15.9956 52.9731 16.728 51.9966C17.436 51.02 18.3638 50.1289 19.5112 49.3232C20.6831 48.4932 21.8428 47.9194 22.9902 47.6021ZM16.1421 39.0327C17.0454 38.2515 18.1562 37.6289 19.4746 37.165C20.8174 36.6768 22.1113 36.4082 23.3564 36.3594C24.2842 36.3594 24.687 36.8232 24.5649 37.751C24.3452 38.9717 23.8691 40.2046 23.1367 41.4497C22.4287 42.6948 21.6108 43.7202 20.6831 44.5259C19.731 45.3804 18.5713 46.0396 17.2041 46.5034C15.8369 46.9673 14.5186 47.1504 13.249 47.0527C12.4434 46.9795 12.1016 46.54 12.2236 45.7344C12.4189 44.5137 12.8706 43.293 13.5786 42.0723C14.311 40.8516 15.1655 39.8384 16.1421 39.0327ZM0.834473 33.9424C0.980957 32.9414 1.51807 32.624 2.4458 32.9902C3.59326 33.4053 4.71631 34.0522 5.81494 34.9312C6.91357 35.8101 7.78027 36.7622 8.41504 37.7876C9.07422 38.8618 9.55029 40.0947 9.84326 41.4863C10.1362 42.8535 10.1973 44.1353 10.0264 45.3315C9.9043 46.1616 9.44043 46.479 8.63477 46.2837C7.38965 46.0151 6.19336 45.4414 5.0459 44.5625C3.89844 43.6836 3.01953 42.6948 2.40918 41.5962C1.75 40.4976 1.27393 39.2524 0.980957 37.8608C0.712402 36.4692 0.663574 35.1631 0.834473 33.9424ZM18.3027 26.3984C19.4502 25.9834 20.7197 25.7759 22.1113 25.7759C23.5029 25.7759 24.7847 25.9712 25.9565 26.3618C26.8599 26.6792 27.0796 27.2285 26.6157 28.0098C26.0298 29.1084 25.1875 30.1216 24.0889 31.0493C22.9902 31.9771 21.8428 32.6729 20.6465 33.1367C19.4502 33.6006 18.1318 33.8203 16.6914 33.7959C15.251 33.7715 13.957 33.4785 12.8096 32.917C12.0527 32.5508 11.894 32.0137 12.3335 31.3057C12.9438 30.207 13.7983 29.2183 14.897 28.3394C15.9956 27.4604 17.1309 26.8135 18.3027 26.3984ZM5.70508 16.4009C6.16895 15.5464 6.76709 15.4121 7.49951 15.998C8.42725 16.7793 9.25732 17.7681 9.98975 18.9644C10.7222 20.1606 11.2227 21.3691 11.4912 22.5898C11.7598 23.7861 11.7964 25.0923 11.6011 26.5083C11.4058 27.8999 11.0029 29.1328 10.3926 30.207C10.002 30.9395 9.46484 31.0737 8.78125 30.6099C7.70703 29.9263 6.7793 28.9863 5.99805 27.79C5.24121 26.5693 4.74072 25.3242 4.49658 24.0547C4.27686 22.8584 4.27686 21.5645 4.49658 20.1729C4.71631 18.7568 5.11914 17.4995 5.70508 16.4009ZM25.1875 15.5586C26.4082 15.3389 27.7021 15.3267 29.0693 15.522C30.4609 15.7173 31.7061 16.0835 32.8047 16.6206C33.6592 17.0356 33.7812 17.6338 33.1709 18.415C32.4141 19.3672 31.4253 20.2217 30.2046 20.9785C29.0083 21.7109 27.7998 22.2114 26.5791 22.48C25.3584 22.8218 24.04 22.8828 22.624 22.6631C21.208 22.4434 19.9629 21.9795 18.8887 21.2715C18.2051 20.8076 18.1074 20.2583 18.5957 19.6235C19.3525 18.647 20.3291 17.7803 21.5254 17.0234C22.7461 16.2666 23.9668 15.7783 25.1875 15.5586ZM14.1279 3.83984C14.6895 3.08301 15.2998 3.05859 15.959 3.7666C16.7891 4.66992 17.4727 5.76855 18.0098 7.0625C18.5713 8.35645 18.8887 9.61377 18.9619 10.8345C19.084 12.0552 18.9375 13.3491 18.5225 14.7163C18.1318 16.0591 17.5703 17.231 16.8379 18.2319C16.3496 18.9155 15.7759 18.9766 15.1167 18.415C14.1646 17.5605 13.3833 16.4863 12.7729 15.1924C12.187 13.874 11.8818 12.5923 11.8574 11.3472C11.7842 10.1265 11.9551 8.83252 12.3701 7.46533C12.8096 6.07373 13.3955 4.86523 14.1279 3.83984ZM33.9399 0.214355C34.8921 0.0922852 35.3438 0.519531 35.2949 1.49609C35.1484 2.74121 34.7822 4.01074 34.1963 5.30469C33.6104 6.59863 32.8901 7.68506 32.0356 8.56396C31.1567 9.51611 30.0703 10.2852 28.7764 10.8711C27.4824 11.457 26.2007 11.7622 24.9312 11.7866C24.1011 11.7866 23.7227 11.3716 23.7959 10.5415C23.8691 9.34521 24.1987 8.1001 24.7847 6.80615C25.3706 5.51221 26.103 4.43799 26.9819 3.5835C27.8608 2.729 28.9351 1.99658 30.2046 1.38623C31.4741 0.751465 32.7192 0.36084 33.9399 0.214355Z" fill="#1F2128" fill-opacity="0.75"/>
</svg>
